<svg width="1000" height="1000" viewBox="0 0 26 15" fill="none" xmlns="http://www.w3.org/2000/svg">
<path d="M24.161 0.461304H11.8585C11.3843 0.461304 11 0.909001 11 1.4613C11 2.01361 11.3844 2.4613 11.8585 2.4613H24.161C24.6352 2.4613 25.0195 2.01361 25.0195 1.4613C25.0195 0.908921 24.6352 0.461304 24.161 0.461304Z" fill="white"/>
<path d="M23.4874 6.68802H1.53207C0.685903 6.68802 0 7.13572 0 7.68802C0 8.24032 0.686025 8.68802 1.53207 8.68802H23.4874C24.3336 8.68802 25.0195 8.24032 25.0195 7.68802C25.0195 7.13564 24.3336 6.68802 23.4874 6.68802Z" fill="white"/>
<path d="M23.7936 12.9147H6.22589C5.54883 12.9147 5 13.3624 5 13.9147C5 14.467 5.54893 14.9147 6.22589 14.9147H23.7936C24.4707 14.9147 25.0195 14.467 25.0195 13.9147C25.0195 13.3624 24.4707 12.9147 23.7936 12.9147Z" fill="white"/>
</svg>
